<svg xmlns="http://www.w3.org/2000/svg" version="1.1" xmlns:xlink="http://www.w3.org/1999/xlink" xmlns:svgjs="http://svgjs.dev/svgjs" width="1488" height="4748" preserveAspectRatio="none" viewBox="0 0 1488 4748"><g mask="url(&quot;#SvgjsMask1586&quot;)" fill="none"><rect width="1488" height="4748" x="0" y="0" fill="url(&quot;#SvgjsLinearGradient1587&quot;)"></rect><path d="M551 2194L174 2193" stroke-width="8" stroke="url(&quot;#SvgjsLinearGradient1588&quot;)" stroke-linecap="round" class="Left"></path><path d="M640 3030L1381 3029" stroke-width="8" stroke="url(&quot;#SvgjsLinearGradient1589&quot;)" stroke-linecap="round" class="Right"></path><path d="M913 3743L1810 3742" stroke-width="10" stroke="url(&quot;#SvgjsLinearGradient1589&quot;)" stroke-linecap="round" class="Right"></path><path d="M892 2247L1483 2246" stroke-width="10" stroke="url(&quot;#SvgjsLinearGradient1588&quot;)" stroke-linecap="round" class="Left"></path><path d="M23 2780L515 2779" stroke-width="10" stroke="url(&quot;#SvgjsLinearGradient1588&quot;)" stroke-linecap="round" class="Left"></path><path d="M1428 2879L312 2878" stroke-width="8" stroke="url(&quot;#SvgjsLinearGradient1588&quot;)" stroke-linecap="round" class="Left"></path><path d="M773 3969L316 3968" stroke-width="8" stroke="url(&quot;#SvgjsLinearGradient1588&quot;)" stroke-linecap="round" class="Left"></path><path d="M1478 4657L491 4656" stroke-width="6" stroke="url(&quot;#SvgjsLinearGradient1588&quot;)" stroke-linecap="round" class="Left"></path><path d="M160 975L916 974" stroke-width="6" stroke="url(&quot;#SvgjsLinearGradient1588&quot;)" stroke-linecap="round" class="Left"></path><path d="M1089 2557L1758 2556" stroke-width="8" stroke="url(&quot;#SvgjsLinearGradient1588&quot;)" stroke-linecap="round" class="Left"></path><path d="M987 3107L1850 3106" stroke-width="8" stroke="url(&quot;#SvgjsLinearGradient1589&quot;)" stroke-linecap="round" class="Right"></path><path d="M963 4116L152 4115" stroke-width="6" stroke="url(&quot;#SvgjsLinearGradient1589&quot;)" stroke-linecap="round" class="Right"></path><path d="M136 1661L624 1660" stroke-width="10" stroke="url(&quot;#SvgjsLinearGradient1589&quot;)" stroke-linecap="round" class="Right"></path><path d="M906 51L1434 50" stroke-width="8" stroke="url(&quot;#SvgjsLinearGradient1589&quot;)" stroke-linecap="round" class="Right"></path><path d="M347 3789L857 3788" stroke-width="10" stroke="url(&quot;#SvgjsLinearGradient1588&quot;)" stroke-linecap="round" class="Left"></path><path d="M364 3776L1384 3775" stroke-width="10" stroke="url(&quot;#SvgjsLinearGradient1589&quot;)" stroke-linecap="round" class="Right"></path><path d="M138 546L-560 545" stroke-width="6" stroke="url(&quot;#SvgjsLinearGradient1589&quot;)" stroke-linecap="round" class="Right"></path><path d="M715 841L1447 840" stroke-width="8" stroke="url(&quot;#SvgjsLinearGradient1589&quot;)" stroke-linecap="round" class="Right"></path><path d="M962 2024L23 2023" stroke-width="6" stroke="url(&quot;#SvgjsLinearGradient1589&quot;)" stroke-linecap="round" class="Right"></path><path d="M886 2708L1930 2707" stroke-width="8" stroke="url(&quot;#SvgjsLinearGradient1588&quot;)" stroke-linecap="round" class="Left"></path><path d="M1112 3755L1927 3754" stroke-width="10" stroke="url(&quot;#SvgjsLinearGradient1588&quot;)" stroke-linecap="round" class="Left"></path><path d="M9 555L-664 554" stroke-width="6" stroke="url(&quot;#SvgjsLinearGradient1588&quot;)" stroke-linecap="round" class="Left"></path><path d="M341 937L-762 936" stroke-width="10" stroke="url(&quot;#SvgjsLinearGradient1588&quot;)" stroke-linecap="round" class="Left"></path><path d="M1117 420L1938 419" stroke-width="6" stroke="url(&quot;#SvgjsLinearGradient1589&quot;)" stroke-linecap="round" class="Right"></path><path d="M475 698L1219 697" stroke-width="10" stroke="url(&quot;#SvgjsLinearGradient1589&quot;)" stroke-linecap="round" class="Right"></path><path d="M437 3959L-79 3958" stroke-width="10" stroke="url(&quot;#SvgjsLinearGradient1589&quot;)" stroke-linecap="round" class="Right"></path><path d="M518 1104L1237 1103" stroke-width="10" stroke="url(&quot;#SvgjsLinearGradient1589&quot;)" stroke-linecap="round" class="Right"></path><path d="M681 1629L-263 1628" stroke-width="6" stroke="url(&quot;#SvgjsLinearGradient1589&quot;)" stroke-linecap="round" class="Right"></path><path d="M152 4367L-299 4366" stroke-width="8" stroke="url(&quot;#SvgjsLinearGradient1589&quot;)" stroke-linecap="round" class="Right"></path><path d="M717 3581L66 3580" stroke-width="8" stroke="url(&quot;#SvgjsLinearGradient1589&quot;)" stroke-linecap="round" class="Right"></path><path d="M1132 2957L484 2956" stroke-width="6" stroke="url(&quot;#SvgjsLinearGradient1588&quot;)" stroke-linecap="round" class="Left"></path><path d="M44 2936L898 2935" stroke-width="10" stroke="url(&quot;#SvgjsLinearGradient1588&quot;)" stroke-linecap="round" class="Left"></path><path d="M1401 3226L2297 3225" stroke-width="10" stroke="url(&quot;#SvgjsLinearGradient1589&quot;)" stroke-linecap="round" class="Right"></path><path d="M1464 4737L659 4736" stroke-width="6" stroke="url(&quot;#SvgjsLinearGradient1588&quot;)" stroke-linecap="round" class="Left"></path><path d="M748 1184L-332 1183" stroke-width="10" stroke="url(&quot;#SvgjsLinearGradient1588&quot;)" stroke-linecap="round" class="Left"></path><path d="M297 2269L1113 2268" stroke-width="8" stroke="url(&quot;#SvgjsLinearGradient1589&quot;)" stroke-linecap="round" class="Right"></path><path d="M303 1866L-150 1865" stroke-width="8" stroke="url(&quot;#SvgjsLinearGradient1588&quot;)" stroke-linecap="round" class="Left"></path><path d="M127 3977L-841 3976" stroke-width="10" stroke="url(&quot;#SvgjsLinearGradient1588&quot;)" stroke-linecap="round" class="Left"></path><path d="M147 4175L-283 4174" stroke-width="8" stroke="url(&quot;#SvgjsLinearGradient1588&quot;)" stroke-linecap="round" class="Left"></path><path d="M805 3429L-298 3428" stroke-width="6" stroke="url(&quot;#SvgjsLinearGradient1588&quot;)" stroke-linecap="round" class="Left"></path><path d="M441 144L1003 143" stroke-width="6" stroke="url(&quot;#SvgjsLinearGradient1588&quot;)" stroke-linecap="round" class="Left"></path><path d="M689 3237L299 3236" stroke-width="8" stroke="url(&quot;#SvgjsLinearGradient1589&quot;)" stroke-linecap="round" class="Right"></path><path d="M472 4637L1127 4636" stroke-width="8" stroke="url(&quot;#SvgjsLinearGradient1589&quot;)" stroke-linecap="round" class="Right"></path><path d="M233 1080L-871 1079" stroke-width="10" stroke="url(&quot;#SvgjsLinearGradient1588&quot;)" stroke-linecap="round" class="Left"></path><path d="M862 2727L1317 2726" stroke-width="6" stroke="url(&quot;#SvgjsLinearGradient1588&quot;)" stroke-linecap="round" class="Left"></path><path d="M1214 4367L700 4366" stroke-width="8" stroke="url(&quot;#SvgjsLinearGradient1588&quot;)" stroke-linecap="round" class="Left"></path><path d="M1244 3361L1827 3360" stroke-width="6" stroke="url(&quot;#SvgjsLinearGradient1589&quot;)" stroke-linecap="round" class="Right"></path><path d="M1405 3234L458 3233" stroke-width="10" stroke="url(&quot;#SvgjsLinearGradient1588&quot;)" stroke-linecap="round" class="Left"></path><path d="M1254 4557L460 4556" stroke-width="8" stroke="url(&quot;#SvgjsLinearGradient1588&quot;)" stroke-linecap="round" class="Left"></path><path d="M1080 1613L436 1612" stroke-width="8" stroke="url(&quot;#SvgjsLinearGradient1589&quot;)" stroke-linecap="round" class="Right"></path><path d="M15 3150L-676 3149" stroke-width="8" stroke="url(&quot;#SvgjsLinearGradient1588&quot;)" stroke-linecap="round" class="Left"></path><path d="M861 3936L-9 3935" stroke-width="10" stroke="url(&quot;#SvgjsLinearGradient1588&quot;)" stroke-linecap="round" class="Left"></path><path d="M1425 297L473 296" stroke-width="10" stroke="url(&quot;#SvgjsLinearGradient1588&quot;)" stroke-linecap="round" class="Left"></path><path d="M1328 711L879 710" stroke-width="10" stroke="url(&quot;#SvgjsLinearGradient1589&quot;)" stroke-linecap="round" class="Right"></path><path d="M1154 4500L729 4499" stroke-width="10" stroke="url(&quot;#SvgjsLinearGradient1589&quot;)" stroke-linecap="round" class="Right"></path><path d="M782 2968L1804 2967" stroke-width="10" stroke="url(&quot;#SvgjsLinearGradient1588&quot;)" stroke-linecap="round" class="Left"></path><path d="M265 2387L-798 2386" stroke-width="6" stroke="url(&quot;#SvgjsLinearGradient1588&quot;)" stroke-linecap="round" class="Left"></path><path d="M987 3547L296 3546" stroke-width="10" stroke="url(&quot;#SvgjsLinearGradient1588&quot;)" stroke-linecap="round" class="Left"></path><path d="M141 4652L-924 4651" stroke-width="10" stroke="url(&quot;#SvgjsLinearGradient1588&quot;)" stroke-linecap="round" class="Left"></path><path d="M634 3556L1363 3555" stroke-width="8" stroke="url(&quot;#SvgjsLinearGradient1589&quot;)" stroke-linecap="round" class="Right"></path><path d="M368 3069L-316 3068" stroke-width="8" stroke="url(&quot;#SvgjsLinearGradient1589&quot;)" stroke-linecap="round" class="Right"></path><path d="M1162 3611L451 3610" stroke-width="10" stroke="url(&quot;#SvgjsLinearGradient1588&quot;)" stroke-linecap="round" class="Left"></path><path d="M687 2455L1733 2454" stroke-width="6" stroke="url(&quot;#SvgjsLinearGradient1589&quot;)" stroke-linecap="round" class="Right"></path><path d="M592 1007L-417 1006" stroke-width="6" stroke="url(&quot;#SvgjsLinearGradient1588&quot;)" stroke-linecap="round" class="Left"></path><path d="M1106 476L1620 475" stroke-width="10" stroke="url(&quot;#SvgjsLinearGradient1588&quot;)" stroke-linecap="round" class="Left"></path><path d="M776 935L187 934" stroke-width="6" stroke="url(&quot;#SvgjsLinearGradient1589&quot;)" stroke-linecap="round" class="Right"></path><path d="M1484 3864L2535 3863" stroke-width="6" stroke="url(&quot;#SvgjsLinearGradient1588&quot;)" stroke-linecap="round" class="Left"></path><path d="M895 1319L1518 1318" stroke-width="8" stroke="url(&quot;#SvgjsLinearGradient1588&quot;)" stroke-linecap="round" class="Left"></path><path d="M695 4432L-232 4431" stroke-width="8" stroke="url(&quot;#SvgjsLinearGradient1588&quot;)" stroke-linecap="round" class="Left"></path><path d="M24 1501L598 1500" stroke-width="10" stroke="url(&quot;#SvgjsLinearGradient1589&quot;)" stroke-linecap="round" class="Right"></path><path d="M313 633L-236 632" stroke-width="8" stroke="url(&quot;#SvgjsLinearGradient1589&quot;)" stroke-linecap="round" class="Right"></path><path d="M1422 958L1839 957" stroke-width="10" stroke="url(&quot;#SvgjsLinearGradient1588&quot;)" stroke-linecap="round" class="Left"></path><path d="M1425 4026L1958 4025" stroke-width="6" stroke="url(&quot;#SvgjsLinearGradient1589&quot;)" stroke-linecap="round" class="Right"></path><path d="M1215 2064L232 2063" stroke-width="10" stroke="url(&quot;#SvgjsLinearGradient1589&quot;)" stroke-linecap="round" class="Right"></path><path d="M374 4057L-386 4056" stroke-width="10" stroke="url(&quot;#SvgjsLinearGradient1589&quot;)" stroke-linecap="round" class="Right"></path><path d="M1280 179L405 178" stroke-width="10" stroke="url(&quot;#SvgjsLinearGradient1589&quot;)" stroke-linecap="round" class="Right"></path><path d="M944 2534L1713 2533" stroke-width="6" stroke="url(&quot;#SvgjsLinearGradient1589&quot;)" stroke-linecap="round" class="Right"></path><path d="M855 301L1449 300" stroke-width="8" stroke="url(&quot;#SvgjsLinearGradient1588&quot;)" stroke-linecap="round" class="Left"></path><path d="M1102 453L87 452" stroke-width="10" stroke="url(&quot;#SvgjsLinearGradient1588&quot;)" stroke-linecap="round" class="Left"></path><path d="M1412 1988L1930 1987" stroke-width="8" stroke="url(&quot;#SvgjsLinearGradient1588&quot;)" stroke-linecap="round" class="Left"></path><path d="M626 871L1677 870" stroke-width="10" stroke="url(&quot;#SvgjsLinearGradient1589&quot;)" stroke-linecap="round" class="Right"></path><path d="M392 3401L1438 3400" stroke-width="8" stroke="url(&quot;#SvgjsLinearGradient1589&quot;)" stroke-linecap="round" class="Right"></path><path d="M634 3600L1614 3599" stroke-width="8" stroke="url(&quot;#SvgjsLinearGradient1588&quot;)" stroke-linecap="round" class="Left"></path><path d="M782 1496L1438 1495" stroke-width="8" stroke="url(&quot;#SvgjsLinearGradient1589&quot;)" stroke-linecap="round" class="Right"></path><path d="M262 2164L-679 2163" stroke-width="10" stroke="url(&quot;#SvgjsLinearGradient1589&quot;)" stroke-linecap="round" class="Right"></path><path d="M132 1195L-819 1194" stroke-width="6" stroke="url(&quot;#SvgjsLinearGradient1588&quot;)" stroke-linecap="round" class="Left"></path><path d="M1068 1173L1556 1172" stroke-width="8" stroke="url(&quot;#SvgjsLinearGradient1588&quot;)" stroke-linecap="round" class="Left"></path><path d="M1016 1375L442 1374" stroke-width="6" stroke="url(&quot;#SvgjsLinearGradient1588&quot;)" stroke-linecap="round" class="Left"></path><path d="M1185 3549L397 3548" stroke-width="10" stroke="url(&quot;#SvgjsLinearGradient1588&quot;)" stroke-linecap="round" class="Left"></path><path d="M1255 1135L142 1134" stroke-width="6" stroke="url(&quot;#SvgjsLinearGradient1589&quot;)" stroke-linecap="round" class="Right"></path><path d="M1421 1062L342 1061" stroke-width="10" stroke="url(&quot;#SvgjsLinearGradient1589&quot;)" stroke-linecap="round" class="Right"></path><path d="M773 2746L1344 2745" stroke-width="8" stroke="url(&quot;#SvgjsLinearGradient1589&quot;)" stroke-linecap="round" class="Right"></path><path d="M1426 4072L683 4071" stroke-width="10" stroke="url(&quot;#SvgjsLinearGradient1588&quot;)" stroke-linecap="round" class="Left"></path><path d="M1037 1982L1506 1981" stroke-width="8" stroke="url(&quot;#SvgjsLinearGradient1588&quot;)" stroke-linecap="round" class="Left"></path><path d="M1070 4419L1799 4418" stroke-width="10" stroke="url(&quot;#SvgjsLinearGradient1589&quot;)" stroke-linecap="round" class="Right"></path><path d="M383 4540L-200 4539" stroke-width="6" stroke="url(&quot;#SvgjsLinearGradient1589&quot;)" stroke-linecap="round" class="Right"></path><path d="M1432 4404L833 4403" stroke-width="8" stroke="url(&quot;#SvgjsLinearGradient1588&quot;)" stroke-linecap="round" class="Left"></path><path d="M1439 3134L512 3133" stroke-width="6" stroke="url(&quot;#SvgjsLinearGradient1589&quot;)" stroke-linecap="round" class="Right"></path><path d="M96 2557L-828 2556" stroke-width="6" stroke="url(&quot;#SvgjsLinearGradient1588&quot;)" stroke-linecap="round" class="Left"></path><path d="M62 3147L-1008 3146" stroke-width="8" stroke="url(&quot;#SvgjsLinearGradient1588&quot;)" stroke-linecap="round" class="Left"></path><path d="M897 2597L1418 2596" stroke-width="10" stroke="url(&quot;#SvgjsLinearGradient1588&quot;)" stroke-linecap="round" class="Left"></path><path d="M1333 3636L1931 3635" stroke-width="10" stroke="url(&quot;#SvgjsLinearGradient1588&quot;)" stroke-linecap="round" class="Left"></path><path d="M282 2477L1007 2476" stroke-width="8" stroke="url(&quot;#SvgjsLinearGradient1589&quot;)" stroke-linecap="round" class="Right"></path><path d="M721 2223L76 2222" stroke-width="8" stroke="url(&quot;#SvgjsLinearGradient1589&quot;)" stroke-linecap="round" class="Right"></path><path d="M1358 178L2225 177" stroke-width="6" stroke="url(&quot;#SvgjsLinearGradient1588&quot;)" stroke-linecap="round" class="Left"></path><path d="M884 571L1622 570" stroke-width="8" stroke="url(&quot;#SvgjsLinearGradient1588&quot;)" stroke-linecap="round" class="Left"></path><path d="M1055 4265L331 4264" stroke-width="10" stroke="url(&quot;#SvgjsLinearGradient1588&quot;)" stroke-linecap="round" class="Left"></path><path d="M1110 3635L219 3634" stroke-width="6" stroke="url(&quot;#SvgjsLinearGradient1588&quot;)" stroke-linecap="round" class="Left"></path><path d="M976 2908L1507 2907" stroke-width="6" stroke="url(&quot;#SvgjsLinearGradient1589&quot;)" stroke-linecap="round" class="Right"></path><path d="M504 2052L-581 2051" stroke-width="10" stroke="url(&quot;#SvgjsLinearGradient1588&quot;)" stroke-linecap="round" class="Left"></path><path d="M670 4476L1241 4475" stroke-width="10" stroke="url(&quot;#SvgjsLinearGradient1589&quot;)" stroke-linecap="round" class="Right"></path><path d="M469 540L40 539" stroke-width="10" stroke="url(&quot;#SvgjsLinearGradient1588&quot;)" stroke-linecap="round" class="Left"></path><path d="M500 1904L1190 1903" stroke-width="6" stroke="url(&quot;#SvgjsLinearGradient1588&quot;)" stroke-linecap="round" class="Left"></path><path d="M322 2419L-397 2418" stroke-width="8" stroke="url(&quot;#SvgjsLinearGradient1589&quot;)" stroke-linecap="round" class="Right"></path><path d="M1418 3682L1843 3681" stroke-width="6" stroke="url(&quot;#SvgjsLinearGradient1588&quot;)" stroke-linecap="round" class="Left"></path><path d="M250 228L1250 227" stroke-width="8" stroke="url(&quot;#SvgjsLinearGradient1588&quot;)" stroke-linecap="round" class="Left"></path><path d="M1321 3809L2020 3808" stroke-width="8" stroke="url(&quot;#SvgjsLinearGradient1588&quot;)" stroke-linecap="round" class="Left"></path><path d="M211 208L-345 207" stroke-width="10" stroke="url(&quot;#SvgjsLinearGradient1588&quot;)" stroke-linecap="round" class="Left"></path><path d="M905 1695L262 1694" stroke-width="8" stroke="url(&quot;#SvgjsLinearGradient1588&quot;)" stroke-linecap="round" class="Left"></path></g><defs><mask id="SvgjsMask1586"><rect width="1488" height="4748" fill="#ffffff"></rect></mask><linearGradient x1="100%" y1="50%" x2="0%" y2="50%" gradientUnits="userSpaceOnUse" id="SvgjsLinearGradient1587"><stop stop-color="#0e2a47" offset="0"></stop><stop stop-color="rgba(0, 0, 0, 1)" offset="1"></stop></linearGradient><linearGradient x1="100%" y1="0%" x2="0%" y2="0%" id="SvgjsLinearGradient1588"><stop stop-color="rgba(0, 37, 110, 0)" offset="0"></stop><stop stop-color="rgba(0, 37, 110, 1)" offset="1"></stop></linearGradient><linearGradient x1="0%" y1="0%" x2="100%" y2="0%" id="SvgjsLinearGradient1589"><stop stop-color="rgba(0, 37, 110, 0)" offset="0"></stop><stop stop-color="rgba(0, 37, 110, 1)" offset="1"></stop></linearGradient></defs></svg>