<svg xmlns="http://www.w3.org/2000/svg" version="1.1" xmlns:xlink="http://www.w3.org/1999/xlink" xmlns:svgjs="http://svgjs.dev/svgjs" width="1440" height="560" preserveAspectRatio="none" viewBox="0 0 1440 560"><g mask="url(&quot;#SvgjsMask2019&quot;)" fill="none"><rect width="1440" height="560" x="0" y="0" fill="url(&quot;#SvgjsLinearGradient2020&quot;)"></rect><path d="M-68.95 410.6L-68.95 410.6" stroke="#132e65" stroke-width="1.5"></path><path d="M-68.95 410.6L-65.85 556.59" stroke="#132e65" stroke-width="1.5"></path><path d="M-65.85 556.59L-65.85 556.59" stroke="#132e65" stroke-width="1.5"></path><path d="M-65.85 556.59L-53.61 657.51" stroke="#132e65" stroke-width="1.5"></path><path d="M-65.85 556.59L102.86 515.89" stroke="#132e65" stroke-width="1.5"></path><path d="M-53.61 657.51L-53.61 657.51" stroke="#132e65" stroke-width="1.5"></path><path d="M-53.61 657.51L102.86 515.89" stroke="#132e65" stroke-width="1.5"></path><path d="M-53.61 657.51L-68.95 410.6" stroke="#132e65" stroke-width="1.5"></path><path d="M91.85 363.31L91.85 363.31" stroke="#132e65" stroke-width="1.5"></path><path d="M91.85 363.31L240.9 387.18" stroke="#132e65" stroke-width="1.5"></path><path d="M91.85 363.31L102.86 515.89" stroke="#132e65" stroke-width="1.5"></path><path d="M91.85 363.31L-68.95 410.6" stroke="#132e65" stroke-width="1.5"></path><path d="M91.85 363.31L212.81 528.28" stroke="#132e65" stroke-width="1.5"></path><path d="M102.86 515.89L102.86 515.89" stroke="#132e65" stroke-width="1.5"></path><path d="M102.86 515.89L212.81 528.28" stroke="#132e65" stroke-width="1.5"></path><path d="M240.9 387.18L240.9 387.18" stroke="#132e65" stroke-width="1.5"></path><path d="M240.9 387.18L365.9 359.32" stroke="#132e65" stroke-width="1.5"></path><path d="M240.9 387.18L212.81 528.28" stroke="#132e65" stroke-width="1.5"></path><path d="M240.9 387.18L380.18 497.68" stroke="#132e65" stroke-width="1.5"></path><path d="M240.9 387.18L102.86 515.89" stroke="#132e65" stroke-width="1.5"></path><path d="M212.81 528.28L212.81 528.28" stroke="#132e65" stroke-width="1.5"></path><path d="M228.61 709.54L228.61 709.54" stroke="#132e65" stroke-width="1.5"></path><path d="M228.61 709.54L212.81 528.28" stroke="#132e65" stroke-width="1.5"></path><path d="M228.61 709.54L102.86 515.89" stroke="#132e65" stroke-width="1.5"></path><path d="M228.61 709.54L380.18 497.68" stroke="#132e65" stroke-width="1.5"></path><path d="M228.61 709.54L507.09 674.03" stroke="#132e65" stroke-width="1.5"></path><path d="M228.61 709.54L-53.61 657.51" stroke="#132e65" stroke-width="1.5"></path><path d="M365.9 359.32L365.9 359.32" stroke="#132e65" stroke-width="1.5"></path><path d="M365.9 359.32L380.18 497.68" stroke="#132e65" stroke-width="1.5"></path><path d="M365.9 359.32L544.97 262.2" stroke="#132e65" stroke-width="1.5"></path><path d="M365.9 359.32L522.8 523.63" stroke="#132e65" stroke-width="1.5"></path><path d="M380.18 497.68L380.18 497.68" stroke="#132e65" stroke-width="1.5"></path><path d="M380.18 497.68L522.8 523.63" stroke="#132e65" stroke-width="1.5"></path><path d="M380.18 497.68L212.81 528.28" stroke="#132e65" stroke-width="1.5"></path><path d="M544.97 262.2L544.97 262.2" stroke="#132e65" stroke-width="1.5"></path><path d="M544.97 262.2L658.87 369.36" stroke="#132e65" stroke-width="1.5"></path><path d="M522.8 523.63L522.8 523.63" stroke="#132e65" stroke-width="1.5"></path><path d="M522.8 523.63L507.09 674.03" stroke="#132e65" stroke-width="1.5"></path><path d="M522.8 523.63L672.12 560.85" stroke="#132e65" stroke-width="1.5"></path><path d="M507.09 674.03L507.09 674.03" stroke="#132e65" stroke-width="1.5"></path><path d="M507.09 674.03L688.07 639.84" stroke="#132e65" stroke-width="1.5"></path><path d="M658.87 369.36L658.87 369.36" stroke="#132e65" stroke-width="1.5"></path><path d="M658.87 369.36L672.12 560.85" stroke="#132e65" stroke-width="1.5"></path><path d="M658.87 369.36L856.2 407.44" stroke="#132e65" stroke-width="1.5"></path><path d="M658.87 369.36L522.8 523.63" stroke="#132e65" stroke-width="1.5"></path><path d="M658.87 369.36L820.91 509.62" stroke="#132e65" stroke-width="1.5"></path><path d="M658.87 369.36L840.7 202.46" stroke="#132e65" stroke-width="1.5"></path><path d="M672.12 560.85L672.12 560.85" stroke="#132e65" stroke-width="1.5"></path><path d="M672.12 560.85L688.07 639.84" stroke="#132e65" stroke-width="1.5"></path><path d="M672.12 560.85L820.91 509.62" stroke="#132e65" stroke-width="1.5"></path><path d="M688.07 639.84L688.07 639.84" stroke="#132e65" stroke-width="1.5"></path><path d="M688.07 639.84L815.33 687.82" stroke="#132e65" stroke-width="1.5"></path><path d="M688.07 639.84L820.91 509.62" stroke="#132e65" stroke-width="1.5"></path><path d="M688.07 639.84L522.8 523.63" stroke="#132e65" stroke-width="1.5"></path><path d="M840.7 202.46L840.7 202.46" stroke="#132e65" stroke-width="1.5"></path><path d="M840.7 202.46L976.45 242.42" stroke="#132e65" stroke-width="1.5"></path><path d="M840.7 202.46L974.1 53.6" stroke="#132e65" stroke-width="1.5"></path><path d="M840.7 202.46L856.2 407.44" stroke="#132e65" stroke-width="1.5"></path><path d="M856.2 407.44L856.2 407.44" stroke="#132e65" stroke-width="1.5"></path><path d="M856.2 407.44L820.91 509.62" stroke="#132e65" stroke-width="1.5"></path><path d="M856.2 407.44L958.35 506.2" stroke="#132e65" stroke-width="1.5"></path><path d="M856.2 407.44L1007.56 368.5" stroke="#132e65" stroke-width="1.5"></path><path d="M856.2 407.44L976.45 242.42" stroke="#132e65" stroke-width="1.5"></path><path d="M820.91 509.62L820.91 509.62" stroke="#132e65" stroke-width="1.5"></path><path d="M820.91 509.62L958.35 506.2" stroke="#132e65" stroke-width="1.5"></path><path d="M815.33 687.82L815.33 687.82" stroke="#132e65" stroke-width="1.5"></path><path d="M815.33 687.82L954.5 668.38" stroke="#132e65" stroke-width="1.5"></path><path d="M815.33 687.82L820.91 509.62" stroke="#132e65" stroke-width="1.5"></path><path d="M815.33 687.82L672.12 560.85" stroke="#132e65" stroke-width="1.5"></path><path d="M815.33 687.82L958.35 506.2" stroke="#132e65" stroke-width="1.5"></path><path d="M1004.69 -39.89L1004.69 -39.89" stroke="#132e65" stroke-width="1.5"></path><path d="M1004.69 -39.89L974.1 53.6" stroke="#132e65" stroke-width="1.5"></path><path d="M1004.69 -39.89L1154.61 -95.08" stroke="#132e65" stroke-width="1.5"></path><path d="M974.1 53.6L974.1 53.6" stroke="#132e65" stroke-width="1.5"></path><path d="M974.1 53.6L1102.79 93.29" stroke="#132e65" stroke-width="1.5"></path><path d="M976.45 242.42L976.45 242.42" stroke="#132e65" stroke-width="1.5"></path><path d="M976.45 242.42L1007.56 368.5" stroke="#132e65" stroke-width="1.5"></path><path d="M976.45 242.42L1125.67 200.75" stroke="#132e65" stroke-width="1.5"></path><path d="M976.45 242.42L974.1 53.6" stroke="#132e65" stroke-width="1.5"></path><path d="M1007.56 368.5L1007.56 368.5" stroke="#132e65" stroke-width="1.5"></path><path d="M1007.56 368.5L958.35 506.2" stroke="#132e65" stroke-width="1.5"></path><path d="M1007.56 368.5L1158.11 363.55" stroke="#132e65" stroke-width="1.5"></path><path d="M958.35 506.2L958.35 506.2" stroke="#132e65" stroke-width="1.5"></path><path d="M954.5 668.38L954.5 668.38" stroke="#132e65" stroke-width="1.5"></path><path d="M954.5 668.38L958.35 506.2" stroke="#132e65" stroke-width="1.5"></path><path d="M954.5 668.38L1134.22 675.05" stroke="#132e65" stroke-width="1.5"></path><path d="M1154.61 -95.08L1154.61 -95.08" stroke="#132e65" stroke-width="1.5"></path><path d="M1154.61 -95.08L1255.18 -96.22" stroke="#132e65" stroke-width="1.5"></path><path d="M1154.61 -95.08L1102.79 93.29" stroke="#132e65" stroke-width="1.5"></path><path d="M1154.61 -95.08L974.1 53.6" stroke="#132e65" stroke-width="1.5"></path><path d="M1154.61 -95.08L1295.66 97.05" stroke="#132e65" stroke-width="1.5"></path><path d="M1154.61 -95.08L1418.02 -89.83" stroke="#132e65" stroke-width="1.5"></path><path d="M1102.79 93.29L1102.79 93.29" stroke="#132e65" stroke-width="1.5"></path><path d="M1102.79 93.29L1125.67 200.75" stroke="#132e65" stroke-width="1.5"></path><path d="M1125.67 200.75L1125.67 200.75" stroke="#132e65" stroke-width="1.5"></path><path d="M1125.67 200.75L1284.87 197.69" stroke="#132e65" stroke-width="1.5"></path><path d="M1125.67 200.75L1158.11 363.55" stroke="#132e65" stroke-width="1.5"></path><path d="M1158.11 363.55L1158.11 363.55" stroke="#132e65" stroke-width="1.5"></path><path d="M1158.11 363.55L1307.46 397.06" stroke="#132e65" stroke-width="1.5"></path><path d="M1158.11 363.55L1118.73 514.72" stroke="#132e65" stroke-width="1.5"></path><path d="M1118.73 514.72L1118.73 514.72" stroke="#132e65" stroke-width="1.5"></path><path d="M1118.73 514.72L958.35 506.2" stroke="#132e65" stroke-width="1.5"></path><path d="M1118.73 514.72L1134.22 675.05" stroke="#132e65" stroke-width="1.5"></path><path d="M1118.73 514.72L1275.61 558" stroke="#132e65" stroke-width="1.5"></path><path d="M1118.73 514.72L1007.56 368.5" stroke="#132e65" stroke-width="1.5"></path><path d="M1118.73 514.72L1270.66 640.44" stroke="#132e65" stroke-width="1.5"></path><path d="M1134.22 675.05L1134.22 675.05" stroke="#132e65" stroke-width="1.5"></path><path d="M1134.22 675.05L1270.66 640.44" stroke="#132e65" stroke-width="1.5"></path><path d="M1134.22 675.05L1275.61 558" stroke="#132e65" stroke-width="1.5"></path><path d="M1255.18 -96.22L1255.18 -96.22" stroke="#132e65" stroke-width="1.5"></path><path d="M1255.18 -96.22L1418.02 -89.83" stroke="#132e65" stroke-width="1.5"></path><path d="M1255.18 -96.22L1295.66 97.05" stroke="#132e65" stroke-width="1.5"></path><path d="M1255.18 -96.22L1102.79 93.29" stroke="#132e65" stroke-width="1.5"></path><path d="M1295.66 97.05L1295.66 97.05" stroke="#132e65" stroke-width="1.5"></path><path d="M1295.66 97.05L1284.87 197.69" stroke="#132e65" stroke-width="1.5"></path><path d="M1295.66 97.05L1424.53 112.04" stroke="#132e65" stroke-width="1.5"></path><path d="M1295.66 97.05L1439.15 203.08" stroke="#132e65" stroke-width="1.5"></path><path d="M1295.66 97.05L1102.79 93.29" stroke="#132e65" stroke-width="1.5"></path><path d="M1295.66 97.05L1125.67 200.75" stroke="#132e65" stroke-width="1.5"></path><path d="M1284.87 197.69L1284.87 197.69" stroke="#132e65" stroke-width="1.5"></path><path d="M1284.87 197.69L1439.15 203.08" stroke="#132e65" stroke-width="1.5"></path><path d="M1284.87 197.69L1424.53 112.04" stroke="#132e65" stroke-width="1.5"></path><path d="M1284.87 197.69L1307.46 397.06" stroke="#132e65" stroke-width="1.5"></path><path d="M1284.87 197.69L1158.11 363.55" stroke="#132e65" stroke-width="1.5"></path><path d="M1307.46 397.06L1307.46 397.06" stroke="#132e65" stroke-width="1.5"></path><path d="M1307.46 397.06L1410.18 376.49" stroke="#132e65" stroke-width="1.5"></path><path d="M1307.46 397.06L1431.64 488.25" stroke="#132e65" stroke-width="1.5"></path><path d="M1307.46 397.06L1275.61 558" stroke="#132e65" stroke-width="1.5"></path><path d="M1275.61 558L1275.61 558" stroke="#132e65" stroke-width="1.5"></path><path d="M1275.61 558L1270.66 640.44" stroke="#132e65" stroke-width="1.5"></path><path d="M1275.61 558L1391.29 642.76" stroke="#132e65" stroke-width="1.5"></path><path d="M1270.66 640.44L1270.66 640.44" stroke="#132e65" stroke-width="1.5"></path><path d="M1270.66 640.44L1391.29 642.76" stroke="#132e65" stroke-width="1.5"></path><path d="M1418.02 -89.83L1418.02 -89.83" stroke="#132e65" stroke-width="1.5"></path><path d="M1418.02 -89.83L1537.59 -57.78" stroke="#132e65" stroke-width="1.5"></path><path d="M1418.02 -89.83L1424.53 112.04" stroke="#132e65" stroke-width="1.5"></path><path d="M1418.02 -89.83L1541.51 77.28" stroke="#132e65" stroke-width="1.5"></path><path d="M1424.53 112.04L1424.53 112.04" stroke="#132e65" stroke-width="1.5"></path><path d="M1424.53 112.04L1439.15 203.08" stroke="#132e65" stroke-width="1.5"></path><path d="M1424.53 112.04L1541.51 77.28" stroke="#132e65" stroke-width="1.5"></path><path d="M1439.15 203.08L1439.15 203.08" stroke="#132e65" stroke-width="1.5"></path><path d="M1439.15 203.08L1567.85 238.27" stroke="#132e65" stroke-width="1.5"></path><path d="M1410.18 376.49L1410.18 376.49" stroke="#132e65" stroke-width="1.5"></path><path d="M1410.18 376.49L1431.64 488.25" stroke="#132e65" stroke-width="1.5"></path><path d="M1431.64 488.25L1431.64 488.25" stroke="#132e65" stroke-width="1.5"></path><path d="M1431.64 488.25L1391.29 642.76" stroke="#132e65" stroke-width="1.5"></path><path d="M1431.64 488.25L1275.61 558" stroke="#132e65" stroke-width="1.5"></path><path d="M1431.64 488.25L1579.73 379.49" stroke="#132e65" stroke-width="1.5"></path><path d="M1431.64 488.25L1270.66 640.44" stroke="#132e65" stroke-width="1.5"></path><path d="M1391.29 642.76L1391.29 642.76" stroke="#132e65" stroke-width="1.5"></path><path d="M1391.29 642.76L1611.2 654.63" stroke="#132e65" stroke-width="1.5"></path><path d="M1391.29 642.76L1134.22 675.05" stroke="#132e65" stroke-width="1.5"></path><path d="M1391.29 642.76L1307.46 397.06" stroke="#132e65" stroke-width="1.5"></path><path d="M1537.59 -57.78L1537.59 -57.78" stroke="#132e65" stroke-width="1.5"></path><path d="M1537.59 -57.78L1541.51 77.28" stroke="#132e65" stroke-width="1.5"></path><path d="M1537.59 -57.78L1424.53 112.04" stroke="#132e65" stroke-width="1.5"></path><path d="M1537.59 -57.78L1439.15 203.08" stroke="#132e65" stroke-width="1.5"></path><path d="M1537.59 -57.78L1255.18 -96.22" stroke="#132e65" stroke-width="1.5"></path><path d="M1537.59 -57.78L1295.66 97.05" stroke="#132e65" stroke-width="1.5"></path><path d="M1541.51 77.28L1541.51 77.28" stroke="#132e65" stroke-width="1.5"></path><path d="M1541.51 77.28L1439.15 203.08" stroke="#132e65" stroke-width="1.5"></path><path d="M1541.51 77.28L1567.85 238.27" stroke="#132e65" stroke-width="1.5"></path><path d="M1567.85 238.27L1567.85 238.27" stroke="#132e65" stroke-width="1.5"></path><path d="M1567.85 238.27L1579.73 379.49" stroke="#132e65" stroke-width="1.5"></path><path d="M1567.85 238.27L1424.53 112.04" stroke="#132e65" stroke-width="1.5"></path><path d="M1567.85 238.27L1410.18 376.49" stroke="#132e65" stroke-width="1.5"></path><path d="M1579.73 379.49L1579.73 379.49" stroke="#132e65" stroke-width="1.5"></path><path d="M1579.73 379.49L1410.18 376.49" stroke="#132e65" stroke-width="1.5"></path><path d="M1579.73 379.49L1439.15 203.08" stroke="#132e65" stroke-width="1.5"></path><path d="M1579.73 379.49L1307.46 397.06" stroke="#132e65" stroke-width="1.5"></path><path d="M1611.2 654.63L1611.2 654.63" stroke="#132e65" stroke-width="1.5"></path><path d="M1611.2 654.63L1431.64 488.25" stroke="#132e65" stroke-width="1.5"></path><path d="M1611.2 654.63L1579.73 379.49" stroke="#132e65" stroke-width="1.5"></path><path d="M1611.2 654.63L1270.66 640.44" stroke="#132e65" stroke-width="1.5"></path><circle r="5" cx="-68.95" cy="410.6" fill="#132e65"></circle><circle r="5" cx="-65.85" cy="556.59" fill="#132e65"></circle><circle r="5" cx="-53.61" cy="657.51" fill="#132e65"></circle><circle r="5" cx="91.85" cy="363.31" fill="#132e65"></circle><circle r="5" cx="102.86" cy="515.89" fill="#132e65"></circle><circle r="5" cx="240.9" cy="387.18" fill="#132e65"></circle><circle r="5" cx="212.81" cy="528.28" fill="#132e65"></circle><circle r="5" cx="228.61" cy="709.54" fill="#132e65"></circle><circle r="5" cx="365.9" cy="359.32" fill="#132e65"></circle><circle r="5" cx="380.18" cy="497.68" fill="#132e65"></circle><circle r="5" cx="544.97" cy="262.2" fill="#132e65"></circle><circle r="5" cx="522.8" cy="523.63" fill="#132e65"></circle><circle r="5" cx="507.09" cy="674.03" fill="#132e65"></circle><circle r="5" cx="658.87" cy="369.36" fill="#132e65"></circle><circle r="5" cx="672.12" cy="560.85" fill="#132e65"></circle><circle r="5" cx="688.07" cy="639.84" fill="#132e65"></circle><circle r="5" cx="840.7" cy="202.46" fill="#132e65"></circle><circle r="5" cx="856.2" cy="407.44" fill="#132e65"></circle><circle r="5" cx="820.91" cy="509.62" fill="#132e65"></circle><circle r="5" cx="815.33" cy="687.82" fill="#132e65"></circle><circle r="5" cx="1004.69" cy="-39.89" fill="#132e65"></circle><circle r="5" cx="974.1" cy="53.6" fill="#132e65"></circle><circle r="5" cx="976.45" cy="242.42" fill="#132e65"></circle><circle r="5" cx="1007.56" cy="368.5" fill="#132e65"></circle><circle r="5" cx="958.35" cy="506.2" fill="#132e65"></circle><circle r="5" cx="954.5" cy="668.38" fill="#132e65"></circle><circle r="5" cx="1154.61" cy="-95.08" fill="#132e65"></circle><circle r="5" cx="1102.79" cy="93.29" fill="#132e65"></circle><circle r="5" cx="1125.67" cy="200.75" fill="#132e65"></circle><circle r="5" cx="1158.11" cy="363.55" fill="#132e65"></circle><circle r="5" cx="1118.73" cy="514.72" fill="#132e65"></circle><circle r="5" cx="1134.22" cy="675.05" fill="#132e65"></circle><circle r="5" cx="1255.18" cy="-96.22" fill="#132e65"></circle><circle r="5" cx="1295.66" cy="97.05" fill="#132e65"></circle><circle r="5" cx="1284.87" cy="197.69" fill="#132e65"></circle><circle r="5" cx="1307.46" cy="397.06" fill="#132e65"></circle><circle r="5" cx="1275.61" cy="558" fill="#132e65"></circle><circle r="5" cx="1270.66" cy="640.44" fill="#132e65"></circle><circle r="5" cx="1418.02" cy="-89.83" fill="#132e65"></circle><circle r="5" cx="1424.53" cy="112.04" fill="#132e65"></circle><circle r="5" cx="1439.15" cy="203.08" fill="#132e65"></circle><circle r="5" cx="1410.18" cy="376.49" fill="#132e65"></circle><circle r="5" cx="1431.64" cy="488.25" fill="#132e65"></circle><circle r="5" cx="1391.29" cy="642.76" fill="#132e65"></circle><circle r="5" cx="1537.59" cy="-57.78" fill="#132e65"></circle><circle r="5" cx="1541.51" cy="77.28" fill="#132e65"></circle><circle r="5" cx="1567.85" cy="238.27" fill="#132e65"></circle><circle r="5" cx="1579.73" cy="379.49" fill="#132e65"></circle><circle r="5" cx="1611.2" cy="654.63" fill="#132e65"></circle><path d="M-50.2 656.85L-50.2 656.85" stroke="hsl(228.5, 77.2%, 51.5%)" stroke-width="1.5"></path><path d="M-50.2 656.85L57.37 665.97" stroke="hsl(228.5, 77.2%, 51.5%)" stroke-width="1.5"></path><path d="M-50.2 656.85L-63.82 501.27" stroke="hsl(228.5, 77.2%, 51.5%)" stroke-width="1.5"></path><path d="M-50.2 656.85L69.33 533.3" stroke="hsl(228.5, 77.2%, 51.5%)" stroke-width="1.5"></path><path d="M57.37 665.97L57.37 665.97" stroke="hsl(228.5, 77.2%, 51.5%)" stroke-width="1.5"></path><path d="M57.37 665.97L69.33 533.3" stroke="hsl(228.5, 77.2%, 51.5%)" stroke-width="1.5"></path><path d="M57.37 665.97L212.52 657.08" stroke="hsl(228.5, 77.2%, 51.5%)" stroke-width="1.5"></path><path d="M194.36 497.14L194.36 497.14" stroke="hsl(228.5, 77.2%, 51.5%)" stroke-width="1.5"></path><path d="M194.36 497.14L69.33 533.3" stroke="hsl(228.5, 77.2%, 51.5%)" stroke-width="1.5"></path><path d="M194.36 497.14L212.52 657.08" stroke="hsl(228.5, 77.2%, 51.5%)" stroke-width="1.5"></path><path d="M960.65 692.32L960.65 692.32" stroke="hsl(228.5, 77.2%, 51.5%)" stroke-width="1.5"></path><path d="M960.65 692.32L1089.99 644.86" stroke="hsl(228.5, 77.2%, 51.5%)" stroke-width="1.5"></path><path d="M960.65 692.32L998.79 547.82" stroke="hsl(228.5, 77.2%, 51.5%)" stroke-width="1.5"></path><path d="M960.65 692.32L814.38 645.5" stroke="hsl(228.5, 77.2%, 51.5%)" stroke-width="1.5"></path><path d="M1269.99 -38.51L1269.99 -38.51" stroke="hsl(228.5, 77.2%, 51.5%)" stroke-width="1.5"></path><path d="M1269.99 -38.51L1297.29 53.17" stroke="hsl(228.5, 77.2%, 51.5%)" stroke-width="1.5"></path><path d="M1269.99 -38.51L1154.03 -99.77" stroke="hsl(228.5, 77.2%, 51.5%)" stroke-width="1.5"></path><path d="M1269.99 -38.51L1397.57 38.73" stroke="hsl(228.5, 77.2%, 51.5%)" stroke-width="1.5"></path><path d="M1269.99 -38.51L1306.34 223.86" stroke="hsl(228.5, 77.2%, 51.5%)" stroke-width="1.5"></path><path d="M1269.99 -38.51L1135.37 204.76" stroke="hsl(228.5, 77.2%, 51.5%)" stroke-width="1.5"></path><path d="M1283.59 641.14L1283.59 641.14" stroke="hsl(228.5, 77.2%, 51.5%)" stroke-width="1.5"></path><path d="M1283.59 641.14L1292.84 548.75" stroke="hsl(228.5, 77.2%, 51.5%)" stroke-width="1.5"></path><path d="M1587.45 552.35L1587.45 552.35" stroke="hsl(228.5, 77.2%, 51.5%)" stroke-width="1.5"></path><path d="M1587.45 552.35L1588.07 694.54" stroke="hsl(228.5, 77.2%, 51.5%)" stroke-width="1.5"></path><path d="M1587.45 552.35L1405.01 521.92" stroke="hsl(228.5, 77.2%, 51.5%)" stroke-width="1.5"></path><path d="M1587.45 552.35L1603.77 348.39" stroke="hsl(228.5, 77.2%, 51.5%)" stroke-width="1.5"></path><path d="M1587.45 552.35L1428.35 687.03" stroke="hsl(228.5, 77.2%, 51.5%)" stroke-width="1.5"></path><path d="M1588.07 694.54L1588.07 694.54" stroke="hsl(228.5, 77.2%, 51.5%)" stroke-width="1.5"></path><path d="M1588.07 694.54L1428.35 687.03" stroke="hsl(228.5, 77.2%, 51.5%)" stroke-width="1.5"></path><path d="M-63.82 501.27L-63.82 501.27" stroke="hsl(228.5, 77.2%, 51.5%)" stroke-width="1.5"></path><path d="M-63.82 501.27L69.33 533.3" stroke="hsl(228.5, 77.2%, 51.5%)" stroke-width="1.5"></path><path d="M-63.82 501.27L57.37 665.97" stroke="hsl(228.5, 77.2%, 51.5%)" stroke-width="1.5"></path><path d="M69.33 533.3L69.33 533.3" stroke="hsl(228.5, 77.2%, 51.5%)" stroke-width="1.5"></path><path d="M212.52 657.08L212.52 657.08" stroke="hsl(228.5, 77.2%, 51.5%)" stroke-width="1.5"></path><path d="M212.52 657.08L366.67 646.78" stroke="hsl(228.5, 77.2%, 51.5%)" stroke-width="1.5"></path><path d="M370.22 502.57L370.22 502.57" stroke="hsl(228.5, 77.2%, 51.5%)" stroke-width="1.5"></path><path d="M370.22 502.57L505.09 532.02" stroke="hsl(228.5, 77.2%, 51.5%)" stroke-width="1.5"></path><path d="M370.22 502.57L366.67 646.78" stroke="hsl(228.5, 77.2%, 51.5%)" stroke-width="1.5"></path><path d="M366.67 646.78L366.67 646.78" stroke="hsl(228.5, 77.2%, 51.5%)" stroke-width="1.5"></path><path d="M366.67 646.78L537.28 703.1" stroke="hsl(228.5, 77.2%, 51.5%)" stroke-width="1.5"></path><path d="M366.67 646.78L505.09 532.02" stroke="hsl(228.5, 77.2%, 51.5%)" stroke-width="1.5"></path><path d="M366.67 646.78L194.36 497.14" stroke="hsl(228.5, 77.2%, 51.5%)" stroke-width="1.5"></path><path d="M366.67 646.78L57.37 665.97" stroke="hsl(228.5, 77.2%, 51.5%)" stroke-width="1.5"></path><path d="M505.09 532.02L505.09 532.02" stroke="hsl(228.5, 77.2%, 51.5%)" stroke-width="1.5"></path><path d="M505.09 532.02L537.28 703.1" stroke="hsl(228.5, 77.2%, 51.5%)" stroke-width="1.5"></path><path d="M537.28 703.1L537.28 703.1" stroke="hsl(228.5, 77.2%, 51.5%)" stroke-width="1.5"></path><path d="M537.28 703.1L685.91 638.51" stroke="hsl(228.5, 77.2%, 51.5%)" stroke-width="1.5"></path><path d="M537.28 703.1L370.22 502.57" stroke="hsl(228.5, 77.2%, 51.5%)" stroke-width="1.5"></path><path d="M537.28 703.1L701.13 489.89" stroke="hsl(228.5, 77.2%, 51.5%)" stroke-width="1.5"></path><path d="M701.13 489.89L701.13 489.89" stroke="hsl(228.5, 77.2%, 51.5%)" stroke-width="1.5"></path><path d="M701.13 489.89L823.45 490.28" stroke="hsl(228.5, 77.2%, 51.5%)" stroke-width="1.5"></path><path d="M701.13 489.89L821.26 403.55" stroke="hsl(228.5, 77.2%, 51.5%)" stroke-width="1.5"></path><path d="M701.13 489.89L685.91 638.51" stroke="hsl(228.5, 77.2%, 51.5%)" stroke-width="1.5"></path><path d="M701.13 489.89L814.38 645.5" stroke="hsl(228.5, 77.2%, 51.5%)" stroke-width="1.5"></path><path d="M701.13 489.89L505.09 532.02" stroke="hsl(228.5, 77.2%, 51.5%)" stroke-width="1.5"></path><path d="M685.91 638.51L685.91 638.51" stroke="hsl(228.5, 77.2%, 51.5%)" stroke-width="1.5"></path><path d="M685.91 638.51L814.38 645.5" stroke="hsl(228.5, 77.2%, 51.5%)" stroke-width="1.5"></path><path d="M685.91 638.51L823.45 490.28" stroke="hsl(228.5, 77.2%, 51.5%)" stroke-width="1.5"></path><path d="M685.91 638.51L505.09 532.02" stroke="hsl(228.5, 77.2%, 51.5%)" stroke-width="1.5"></path><path d="M685.91 638.51L821.26 403.55" stroke="hsl(228.5, 77.2%, 51.5%)" stroke-width="1.5"></path><path d="M821.26 403.55L821.26 403.55" stroke="hsl(228.5, 77.2%, 51.5%)" stroke-width="1.5"></path><path d="M821.26 403.55L823.45 490.28" stroke="hsl(228.5, 77.2%, 51.5%)" stroke-width="1.5"></path><path d="M821.26 403.55L968.32 399.88" stroke="hsl(228.5, 77.2%, 51.5%)" stroke-width="1.5"></path><path d="M823.45 490.28L823.45 490.28" stroke="hsl(228.5, 77.2%, 51.5%)" stroke-width="1.5"></path><path d="M823.45 490.28L814.38 645.5" stroke="hsl(228.5, 77.2%, 51.5%)" stroke-width="1.5"></path><path d="M814.38 645.5L814.38 645.5" stroke="hsl(228.5, 77.2%, 51.5%)" stroke-width="1.5"></path><path d="M814.38 645.5L998.79 547.82" stroke="hsl(228.5, 77.2%, 51.5%)" stroke-width="1.5"></path><path d="M968.32 399.88L968.32 399.88" stroke="hsl(228.5, 77.2%, 51.5%)" stroke-width="1.5"></path><path d="M968.32 399.88L998.79 547.82" stroke="hsl(228.5, 77.2%, 51.5%)" stroke-width="1.5"></path><path d="M968.32 399.88L823.45 490.28" stroke="hsl(228.5, 77.2%, 51.5%)" stroke-width="1.5"></path><path d="M968.32 399.88L1135.37 204.76" stroke="hsl(228.5, 77.2%, 51.5%)" stroke-width="1.5"></path><path d="M968.32 399.88L1089.99 644.86" stroke="hsl(228.5, 77.2%, 51.5%)" stroke-width="1.5"></path><path d="M968.32 399.88L701.13 489.89" stroke="hsl(228.5, 77.2%, 51.5%)" stroke-width="1.5"></path><path d="M998.79 547.82L998.79 547.82" stroke="hsl(228.5, 77.2%, 51.5%)" stroke-width="1.5"></path><path d="M998.79 547.82L1089.99 644.86" stroke="hsl(228.5, 77.2%, 51.5%)" stroke-width="1.5"></path><path d="M998.79 547.82L823.45 490.28" stroke="hsl(228.5, 77.2%, 51.5%)" stroke-width="1.5"></path><path d="M998.79 547.82L821.26 403.55" stroke="hsl(228.5, 77.2%, 51.5%)" stroke-width="1.5"></path><path d="M1154.03 -99.77L1154.03 -99.77" stroke="hsl(228.5, 77.2%, 51.5%)" stroke-width="1.5"></path><path d="M1154.03 -99.77L1297.29 53.17" stroke="hsl(228.5, 77.2%, 51.5%)" stroke-width="1.5"></path><path d="M1154.03 -99.77L1397.57 38.73" stroke="hsl(228.5, 77.2%, 51.5%)" stroke-width="1.5"></path><path d="M1154.03 -99.77L1135.37 204.76" stroke="hsl(228.5, 77.2%, 51.5%)" stroke-width="1.5"></path><path d="M1154.03 -99.77L1306.34 223.86" stroke="hsl(228.5, 77.2%, 51.5%)" stroke-width="1.5"></path><path d="M1135.37 204.76L1135.37 204.76" stroke="hsl(228.5, 77.2%, 51.5%)" stroke-width="1.5"></path><path d="M1135.37 204.76L1306.34 223.86" stroke="hsl(228.5, 77.2%, 51.5%)" stroke-width="1.5"></path><path d="M1135.37 204.76L1258.92 379.31" stroke="hsl(228.5, 77.2%, 51.5%)" stroke-width="1.5"></path><path d="M1135.37 204.76L1297.29 53.17" stroke="hsl(228.5, 77.2%, 51.5%)" stroke-width="1.5"></path><path d="M1089.99 644.86L1089.99 644.86" stroke="hsl(228.5, 77.2%, 51.5%)" stroke-width="1.5"></path><path d="M1297.29 53.17L1297.29 53.17" stroke="hsl(228.5, 77.2%, 51.5%)" stroke-width="1.5"></path><path d="M1297.29 53.17L1397.57 38.73" stroke="hsl(228.5, 77.2%, 51.5%)" stroke-width="1.5"></path><path d="M1297.29 53.17L1306.34 223.86" stroke="hsl(228.5, 77.2%, 51.5%)" stroke-width="1.5"></path><path d="M1306.34 223.86L1306.34 223.86" stroke="hsl(228.5, 77.2%, 51.5%)" stroke-width="1.5"></path><path d="M1306.34 223.86L1397.96 251.63" stroke="hsl(228.5, 77.2%, 51.5%)" stroke-width="1.5"></path><path d="M1306.34 223.86L1418.68 339.84" stroke="hsl(228.5, 77.2%, 51.5%)" stroke-width="1.5"></path><path d="M1306.34 223.86L1258.92 379.31" stroke="hsl(228.5, 77.2%, 51.5%)" stroke-width="1.5"></path><path d="M1258.92 379.31L1258.92 379.31" stroke="hsl(228.5, 77.2%, 51.5%)" stroke-width="1.5"></path><path d="M1292.84 548.75L1292.84 548.75" stroke="hsl(228.5, 77.2%, 51.5%)" stroke-width="1.5"></path><path d="M1292.84 548.75L1405.01 521.92" stroke="hsl(228.5, 77.2%, 51.5%)" stroke-width="1.5"></path><path d="M1292.84 548.75L1258.92 379.31" stroke="hsl(228.5, 77.2%, 51.5%)" stroke-width="1.5"></path><path d="M1397.57 38.73L1397.57 38.73" stroke="hsl(228.5, 77.2%, 51.5%)" stroke-width="1.5"></path><path d="M1397.57 38.73L1596.82 56.38" stroke="hsl(228.5, 77.2%, 51.5%)" stroke-width="1.5"></path><path d="M1397.57 38.73L1306.34 223.86" stroke="hsl(228.5, 77.2%, 51.5%)" stroke-width="1.5"></path><path d="M1397.57 38.73L1397.96 251.63" stroke="hsl(228.5, 77.2%, 51.5%)" stroke-width="1.5"></path><path d="M1397.57 38.73L1569.8 -108.74" stroke="hsl(228.5, 77.2%, 51.5%)" stroke-width="1.5"></path><path d="M1397.96 251.63L1397.96 251.63" stroke="hsl(228.5, 77.2%, 51.5%)" stroke-width="1.5"></path><path d="M1397.96 251.63L1418.68 339.84" stroke="hsl(228.5, 77.2%, 51.5%)" stroke-width="1.5"></path><path d="M1418.68 339.84L1418.68 339.84" stroke="hsl(228.5, 77.2%, 51.5%)" stroke-width="1.5"></path><path d="M1405.01 521.92L1405.01 521.92" stroke="hsl(228.5, 77.2%, 51.5%)" stroke-width="1.5"></path><path d="M1405.01 521.92L1428.35 687.03" stroke="hsl(228.5, 77.2%, 51.5%)" stroke-width="1.5"></path><path d="M1405.01 521.92L1283.59 641.14" stroke="hsl(228.5, 77.2%, 51.5%)" stroke-width="1.5"></path><path d="M1405.01 521.92L1418.68 339.84" stroke="hsl(228.5, 77.2%, 51.5%)" stroke-width="1.5"></path><path d="M1428.35 687.03L1428.35 687.03" stroke="hsl(228.5, 77.2%, 51.5%)" stroke-width="1.5"></path><path d="M1428.35 687.03L1283.59 641.14" stroke="hsl(228.5, 77.2%, 51.5%)" stroke-width="1.5"></path><path d="M1428.35 687.03L1292.84 548.75" stroke="hsl(228.5, 77.2%, 51.5%)" stroke-width="1.5"></path><path d="M1428.35 687.03L1089.99 644.86" stroke="hsl(228.5, 77.2%, 51.5%)" stroke-width="1.5"></path><path d="M1569.8 -108.74L1569.8 -108.74" stroke="hsl(228.5, 77.2%, 51.5%)" stroke-width="1.5"></path><path d="M1569.8 -108.74L1596.82 56.38" stroke="hsl(228.5, 77.2%, 51.5%)" stroke-width="1.5"></path><path d="M1569.8 -108.74L1269.99 -38.51" stroke="hsl(228.5, 77.2%, 51.5%)" stroke-width="1.5"></path><path d="M1596.82 56.38L1596.82 56.38" stroke="hsl(228.5, 77.2%, 51.5%)" stroke-width="1.5"></path><path d="M1596.82 56.38L1577.49 228.47" stroke="hsl(228.5, 77.2%, 51.5%)" stroke-width="1.5"></path><path d="M1577.49 228.47L1577.49 228.47" stroke="hsl(228.5, 77.2%, 51.5%)" stroke-width="1.5"></path><path d="M1577.49 228.47L1603.77 348.39" stroke="hsl(228.5, 77.2%, 51.5%)" stroke-width="1.5"></path><path d="M1603.77 348.39L1603.77 348.39" stroke="hsl(228.5, 77.2%, 51.5%)" stroke-width="1.5"></path><path d="M1603.77 348.39L1418.68 339.84" stroke="hsl(228.5, 77.2%, 51.5%)" stroke-width="1.5"></path><path d="M1603.77 348.39L1397.96 251.63" stroke="hsl(228.5, 77.2%, 51.5%)" stroke-width="1.5"></path><circle r="25" cx="-50.2" cy="656.85" fill="url(&quot;#SvgjsRadialGradient2021&quot;)"></circle><circle r="25" cx="57.37" cy="665.97" fill="url(&quot;#SvgjsRadialGradient2021&quot;)"></circle><circle r="25" cx="194.36" cy="497.14" fill="url(&quot;#SvgjsRadialGradient2021&quot;)"></circle><circle r="25" cx="960.65" cy="692.32" fill="url(&quot;#SvgjsRadialGradient2021&quot;)"></circle><circle r="25" cx="1269.99" cy="-38.51" fill="url(&quot;#SvgjsRadialGradient2021&quot;)"></circle><circle r="25" cx="1283.59" cy="641.14" fill="url(&quot;#SvgjsRadialGradient2021&quot;)"></circle><circle r="25" cx="1587.45" cy="552.35" fill="url(&quot;#SvgjsRadialGradient2021&quot;)"></circle><circle r="25" cx="1588.07" cy="694.54" fill="url(&quot;#SvgjsRadialGradient2021&quot;)"></circle><circle r="5" cx="-63.82" cy="501.27" fill="#8b9ad9"></circle><circle r="5" cx="69.33" cy="533.3" fill="#8b9ad9"></circle><circle r="5" cx="212.52" cy="657.08" fill="#8b9ad9"></circle><circle r="5" cx="370.22" cy="502.57" fill="#8b9ad9"></circle><circle r="5" cx="366.67" cy="646.78" fill="#8b9ad9"></circle><circle r="5" cx="505.09" cy="532.02" fill="#8b9ad9"></circle><circle r="5" cx="537.28" cy="703.1" fill="#8b9ad9"></circle><circle r="5" cx="701.13" cy="489.89" fill="#8b9ad9"></circle><circle r="5" cx="685.91" cy="638.51" fill="#8b9ad9"></circle><circle r="5" cx="821.26" cy="403.55" fill="#8b9ad9"></circle><circle r="5" cx="823.45" cy="490.28" fill="#8b9ad9"></circle><circle r="5" cx="814.38" cy="645.5" fill="#8b9ad9"></circle><circle r="5" cx="968.32" cy="399.88" fill="#8b9ad9"></circle><circle r="5" cx="998.79" cy="547.82" fill="#8b9ad9"></circle><circle r="5" cx="1154.03" cy="-99.77" fill="#8b9ad9"></circle><circle r="5" cx="1135.37" cy="204.76" fill="#8b9ad9"></circle><circle r="5" cx="1089.99" cy="644.86" fill="#8b9ad9"></circle><circle r="5" cx="1297.29" cy="53.17" fill="#8b9ad9"></circle><circle r="5" cx="1306.34" cy="223.86" fill="#8b9ad9"></circle><circle r="5" cx="1258.92" cy="379.31" fill="#8b9ad9"></circle><circle r="5" cx="1292.84" cy="548.75" fill="#8b9ad9"></circle><circle r="5" cx="1397.57" cy="38.73" fill="#8b9ad9"></circle><circle r="5" cx="1397.96" cy="251.63" fill="#8b9ad9"></circle><circle r="5" cx="1418.68" cy="339.84" fill="#8b9ad9"></circle><circle r="5" cx="1405.01" cy="521.92" fill="#8b9ad9"></circle><circle r="5" cx="1428.35" cy="687.03" fill="#8b9ad9"></circle><circle r="5" cx="1569.8" cy="-108.74" fill="#8b9ad9"></circle><circle r="5" cx="1596.82" cy="56.38" fill="#8b9ad9"></circle><circle r="5" cx="1577.49" cy="228.47" fill="#8b9ad9"></circle><circle r="5" cx="1603.77" cy="348.39" fill="#8b9ad9"></circle></g><defs><mask id="SvgjsMask2019"><rect width="1440" height="560" fill="#ffffff"></rect></mask><linearGradient x1="84.72%" y1="139.29%" x2="15.28%" y2="-39.29%" gradientUnits="userSpaceOnUse" id="SvgjsLinearGradient2020"><stop stop-color="rgba(14, 42, 71, 1)" offset="0"></stop><stop stop-color="rgba(1, 0, 20, 1)" offset="0.57"></stop></linearGradient><radialGradient id="SvgjsRadialGradient2021"><stop stop-color="#ffffff" offset="0.1"></stop><stop stop-color="#1735b3" offset="0.2"></stop><stop stop-color="rgba(23, 53, 179, 0)" offset="1"></stop></radialGradient></defs></svg>