<svg xmlns="http://www.w3.org/2000/svg" version="1.1" xmlns:xlink="http://www.w3.org/1999/xlink" xmlns:svgjs="http://svgjs.dev/svgjs" width="1488" height="4847" preserveAspectRatio="none" viewBox="0 0 1488 4847"><g mask="url(&quot;#SvgjsMask1400&quot;)" fill="none"><rect width="1488" height="4847" x="0" y="0" fill="url(&quot;#SvgjsLinearGradient1401&quot;)"></rect><path d="M1488 0L1302.3899999999999 0L1488 1237.57z" fill="rgba(255, 255, 255, .1)"></path><path d="M1302.3899999999999 0L1488 1237.57L1488 2665.0299999999997L796.56 0z" fill="rgba(255, 255, 255, .075)"></path><path d="M796.56 0L1488 2665.0299999999997L1488 3652.2099999999996L370.62999999999994 0z" fill="rgba(255, 255, 255, .05)"></path><path d="M370.6299999999999 0L1488 3652.2099999999996L1488 4313.48L307.32999999999987 0z" fill="rgba(255, 255, 255, .025)"></path><path d="M0 4847L141.49 4847L0 3841.82z" fill="rgba(0, 0, 0, .1)"></path><path d="M0 3841.82L141.49 4847L281 4847L0 3043.57z" fill="rgba(0, 0, 0, .075)"></path><path d="M0 3043.57L281 4847L934.96 4847L0 1985.0800000000002z" fill="rgba(0, 0, 0, .05)"></path><path d="M0 1985.08L934.96 4847L936.6500000000001 4847L0 746.02z" fill="rgba(0, 0, 0, .025)"></path></g><defs><mask id="SvgjsMask1400"><rect width="1488" height="4847" fill="#ffffff"></rect></mask><linearGradient x1="-56.43%" y1="17.33%" x2="156.43%" y2="82.67%" gradientUnits="userSpaceOnUse" id="SvgjsLinearGradient1401"><stop stop-color="#0e2a47" offset="0"></stop><stop stop-color="rgba(8, 9, 57, 1)" offset="1"></stop></linearGradient></defs></svg>