<svg xmlns="http://www.w3.org/2000/svg" version="1.1" xmlns:xlink="http://www.w3.org/1999/xlink" xmlns:svgjs="http://svgjs.dev/svgjs" width="1900" height="4847" preserveAspectRatio="none" viewBox="0 0 1900 4847"><g mask="url(&quot;#SvgjsMask1434&quot;)" fill="none"><rect width="1900" height="4847" x="0" y="0" fill="url(&quot;#SvgjsLinearGradient1435&quot;)"></rect><path d="M0 0L254.65 0L0 1252.95z" fill="rgba(255, 255, 255, .1)"></path><path d="M0 1252.95L254.65 0L256.94 0L0 1970.24z" fill="rgba(255, 255, 255, .075)"></path><path d="M0 1970.24L256.94 0L478.3 0L0 2757.01z" fill="rgba(255, 255, 255, .05)"></path><path d="M0 2757.01L478.3 0L607.81 0L0 3984.42z" fill="rgba(255, 255, 255, .025)"></path><path d="M1900 4847L1163.8200000000002 4847L1900 2536.86z" fill="rgba(0, 0, 0, .1)"></path><path d="M1900 2536.86L1163.8200000000002 4847L521.5900000000001 4847L1900 2258.25z" fill="rgba(0, 0, 0, .075)"></path><path d="M1900 2258.25L521.5900000000001 4847L442.51000000000016 4847L1900 958.5899999999999z" fill="rgba(0, 0, 0, .05)"></path><path d="M1900 958.5900000000001L442.5100000000002 4847L285.5000000000002 4847L1900 694.6100000000001z" fill="rgba(0, 0, 0, .025)"></path></g><defs><mask id="SvgjsMask1434"><rect width="1900" height="4847" fill="#ffffff"></rect></mask><linearGradient x1="-38.78%" y1="15.2%" x2="138.78%" y2="84.8%" gradientUnits="userSpaceOnUse" id="SvgjsLinearGradient1435"><stop stop-color="#0e2a47" offset="0"></stop><stop stop-color="rgba(8, 9, 57, 1)" offset="1"></stop></linearGradient></defs></svg>