<svg xmlns="http://www.w3.org/2000/svg" version="1.1" xmlns:xlink="http://www.w3.org/1999/xlink" xmlns:svgjs="http://svgjs.dev/svgjs" width="1950" height="6000" preserveAspectRatio="none" viewBox="0 0 1950 6000"><g mask="url(&quot;#SvgjsMask1458&quot;)" fill="none"><rect width="1950" height="6000" x="0" y="0" fill="url(&quot;#SvgjsLinearGradient1459&quot;)"></rect><path d="M0 0L689.93 0L0 2957.38z" fill="rgba(255, 255, 255, .1)"></path><path d="M0 2957.38L689.93 0L1141.22 0L0 4494.42z" fill="rgba(255, 255, 255, .075)"></path><path d="M0 4494.42L1141.22 0L1219.66 0L0 5077.66z" fill="rgba(255, 255, 255, .05)"></path><path d="M0 5077.66L1219.66 0L1473.1200000000001 0L0 5304.45z" fill="rgba(255, 255, 255, .025)"></path><path d="M1950 6000L1800.41 6000L1950 4433.51z" fill="rgba(0, 0, 0, .1)"></path><path d="M1950 4433.51L1800.41 6000L1449.3300000000002 6000L1950 3782.2400000000002z" fill="rgba(0, 0, 0, .075)"></path><path d="M1950 3782.24L1449.33 6000L752.79 6000L1950 3117.08z" fill="rgba(0, 0, 0, .05)"></path><path d="M1950 3117.08L752.79 6000L475.51 6000L1950 964.5299999999997z" fill="rgba(0, 0, 0, .025)"></path></g><defs><mask id="SvgjsMask1458"><rect width="1950" height="6000" fill="#ffffff"></rect></mask><linearGradient x1="-51.92%" y1="16.88%" x2="151.92%" y2="83.13%" gradientUnits="userSpaceOnUse" id="SvgjsLinearGradient1459"><stop stop-color="#0e2a47" offset="0"></stop><stop stop-color="rgba(8, 9, 57, 1)" offset="1"></stop></linearGradient></defs></svg>