<svg xmlns="http://www.w3.org/2000/svg" version="1.1" xmlns:xlink="http://www.w3.org/1999/xlink" xmlns:svgjs="http://svgjs.dev/svgjs" width="1900" height="6000" preserveAspectRatio="none" viewBox="0 0 1900 6000"><g mask="url(&quot;#SvgjsMask1450&quot;)" fill="none"><rect width="1900" height="6000" x="0" y="0" fill="url(&quot;#SvgjsLinearGradient1451&quot;)"></rect><path d="M0 0L48.81 0L0 1802.89z" fill="rgba(255, 255, 255, .1)"></path><path d="M0 1802.89L48.81 0L990.5999999999999 0L0 3449.21z" fill="rgba(255, 255, 255, .075)"></path><path d="M0 3449.21L990.5999999999999 0L1463.23 0L0 4675.1900000000005z" fill="rgba(255, 255, 255, .05)"></path><path d="M0 4675.1900000000005L1463.23 0L1753.51 0L0 4687.55z" fill="rgba(255, 255, 255, .025)"></path><path d="M1900 6000L1700.8600000000001 6000L1900 4152.84z" fill="rgba(0, 0, 0, .1)"></path><path d="M1900 4152.84L1700.8600000000001 6000L944.9300000000002 6000L1900 3472.9500000000003z" fill="rgba(0, 0, 0, .075)"></path><path d="M1900 3472.95L944.9300000000001 6000L401.23 6000L1900 1778.6299999999999z" fill="rgba(0, 0, 0, .05)"></path><path d="M1900 1778.63L401.23 6000L359.88 6000L1900 1546.3700000000001z" fill="rgba(0, 0, 0, .025)"></path></g><defs><mask id="SvgjsMask1450"><rect width="1900" height="6000" fill="#ffffff"></rect></mask><linearGradient x1="-53.95%" y1="17.08%" x2="153.95%" y2="82.92%" gradientUnits="userSpaceOnUse" id="SvgjsLinearGradient1451"><stop stop-color="#0e2a47" offset="0"></stop><stop stop-color="rgba(8, 9, 57, 1)" offset="1"></stop></linearGradient></defs></svg>