<svg xmlns="http://www.w3.org/2000/svg" version="1.1" xmlns:xlink="http://www.w3.org/1999/xlink" xmlns:svgjs="http://svgjs.dev/svgjs" width="1440" height="4847" preserveAspectRatio="none" viewBox="0 0 1440 4847"><g mask="url(&quot;#SvgjsMask1392&quot;)" fill="none"><rect width="1440" height="4847" x="0" y="0" fill="url(&quot;#SvgjsLinearGradient1393&quot;)"></rect><path d="M1440 0L1077 0L1440 2206.21z" fill="rgba(255, 255, 255, .1)"></path><path d="M1077 0L1440 2206.21L1440 2208.92L569.73 0z" fill="rgba(255, 255, 255, .075)"></path><path d="M569.73 0L1440 2208.92L1440 2411.83L262.51 0z" fill="rgba(255, 255, 255, .05)"></path><path d="M262.51 0L1440 2411.83L1440 2571.0699999999997L234.44 0z" fill="rgba(255, 255, 255, .025)"></path><path d="M0 4847L491.37 4847L0 3017.5299999999997z" fill="rgba(0, 0, 0, .1)"></path><path d="M0 3017.5299999999997L491.37 4847L828.45 4847L0 2845.68z" fill="rgba(0, 0, 0, .075)"></path><path d="M0 2845.6800000000003L828.45 4847L1181.54 4847L0 2600.9800000000005z" fill="rgba(0, 0, 0, .05)"></path><path d="M0 2600.98L1181.54 4847L1266.3799999999999 4847L0 768.3700000000001z" fill="rgba(0, 0, 0, .025)"></path></g><defs><mask id="SvgjsMask1392"><rect width="1440" height="4847" fill="#ffffff"></rect></mask><linearGradient x1="-59.15%" y1="17.57%" x2="159.15%" y2="82.43%" gradientUnits="userSpaceOnUse" id="SvgjsLinearGradient1393"><stop stop-color="#0e2a47" offset="0"></stop><stop stop-color="rgba(8, 9, 57, 1)" offset="1"></stop></linearGradient></defs></svg>